<?xml version="1.0" standalone="no"?>
<!DOCTYPE svg PUBLIC "-//W3C//DTD SVG 20010904//EN"
 "http://www.w3.org/TR/2001/REC-SVG-20010904/DTD/svg10.dtd">
<svg version="1.0" xmlns="http://www.w3.org/2000/svg"
 width="64.000000pt" height="64.000000pt" viewBox="0 0 64.000000 64.000000"
 preserveAspectRatio="xMidYMid meet">

<g transform="translate(0.000000,64.000000) scale(0.100000,-0.100000)"
fill="#000000" stroke="none">
<path d="M308 619 c-2 -17 -14 -25 -48 -33 -95 -24 -179 -102 -205 -190 -18
-60 -18 -98 0 -151 l14 -40 -6 47 c-12 102 53 213 149 253 49 20 98 20 98 0 0
-8 5 -15 10 -15 15 0 120 61 120 69 0 4 -15 15 -32 25 -18 10 -47 27 -65 38
-31 19 -32 19 -35 -3z"/>
<path d="M574 358 c-1 -98 -58 -186 -146 -222 -49 -21 -108 -21 -108 -1 0 20
-4 19 -58 -12 -79 -45 -78 -43 -15 -79 63 -36 85 -42 77 -20 -4 9 9 17 42 25
140 36 228 140 227 272 0 36 -4 73 -10 83 -7 12 -9 -1 -9 -46z"/>
</g>
</svg>
