<?xml version="1.0" standalone="no"?>
<!DOCTYPE svg PUBLIC "-//W3C//DTD SVG 20010904//EN"
 "http://www.w3.org/TR/2001/REC-SVG-20010904/DTD/svg10.dtd">
<svg version="1.0" xmlns="http://www.w3.org/2000/svg"
 width="1200.000000pt" height="1200.000000pt" viewBox="0 0 1200.000000 1200.000000"
 preserveAspectRatio="xMidYMid meet">
<metadata>
Created by potrace 1.16, written by Peter Selinger 2001-2019
</metadata>
<g transform="translate(0.000000,1200.000000) scale(0.100000,-0.100000)"
fill="#000000" stroke="none">
<path d="M7941 11546 c2 -1 60 -27 129 -56 313 -133 755 -378 978 -542 l52
-39 -69 -82 -69 -81 142 -96 c1002 -674 1757 -1646 2164 -2786 311 -870 400
-1853 251 -2774 -147 -916 -530 -1793 -1104 -2529 -276 -354 -630 -707 -985
-982 -1555 -1204 -3668 -1503 -5490 -777 -873 348 -1637 900 -2231 1610 -816
977 -1261 2159 -1296 3445 l-6 222 -32 -52 c-18 -28 -77 -128 -131 -221 -91
-155 -100 -167 -105 -140 -4 16 -7 145 -8 288 -1 202 -4 257 -13 254 -7 -3
-37 -13 -67 -24 l-54 -19 6 -310 c3 -170 8 -321 11 -335 2 -14 7 -56 11 -95 7
-85 25 -233 30 -260 2 -11 7 -40 10 -65 3 -25 7 -56 10 -70 2 -13 7 -40 10
-60 3 -19 17 -89 31 -155 14 -66 30 -142 35 -170 5 -27 13 -51 19 -53 5 -2 7
-8 4 -13 -8 -13 17 -112 31 -121 5 -4 6 -8 1 -8 -5 0 -3 -6 3 -14 6 -8 10 -20
9 -27 -2 -8 7 -15 22 -17 20 -2 22 -1 10 8 -11 8 -8 9 15 4 24 -4 27 -3 15 6
-12 9 -10 10 9 5 15 -5 21 -3 17 3 -4 6 2 8 16 4 18 -4 11 -10 -37 -27 -54
-20 -84 -45 -55 -45 6 0 9 -4 6 -9 -12 -19 24 -19 72 -1 48 19 50 19 55 1 4
-15 -6 -22 -49 -37 -30 -10 -54 -21 -54 -26 0 -4 24 1 53 11 l54 19 15 -27 c9
-14 42 -100 73 -191 254 -732 630 -1377 1126 -1931 52 -57 100 -116 108 -131
21 -41 390 -400 536 -522 956 -796 2034 -1239 3305 -1358 207 -19 806 -16
1010 5 1019 106 1899 419 2725 970 1338 892 2252 2305 2525 3902 90 531 106
1102 44 1650 -58 514 -192 1049 -383 1527 l-49 120 32 13 c17 6 40 15 50 19
10 3 17 9 14 11 -3 3 -24 -2 -48 -10 -50 -18 -64 -19 -55 -5 3 6 0 10 -7 11
-16 1 71 40 93 42 17 1 15 27 -2 27 -4 0 -6 7 -3 15 6 16 -12 14 -73 -6 -27
-9 -38 -8 -46 1 -9 10 -7 11 12 5 15 -5 21 -3 17 3 -4 6 3 8 16 5 19 -4 20 -3
8 6 -12 9 -9 10 15 5 24 -4 27 -3 15 6 -12 9 -10 10 10 4 22 -6 23 -5 11 10
-7 9 -10 16 -5 16 5 0 2 5 -6 10 -8 5 -15 15 -15 22 -1 7 -6 12 -12 11 -5 -1
-10 8 -9 20 2 27 -178 384 -219 437 -7 8 -23 35 -36 60 -13 25 -34 59 -46 76
-13 17 -23 36 -23 42 0 7 -4 12 -10 12 -5 0 -10 5 -10 10 0 11 -165 256 -187
278 -7 7 -13 16 -13 20 0 4 -14 23 -30 42 -16 19 -30 38 -30 42 0 3 -16 26
-36 50 -19 23 -45 56 -57 71 -12 16 -32 40 -44 53 -13 14 -23 27 -23 29 0 2
-12 17 -27 33 -16 16 -39 44 -53 62 -14 18 -39 48 -57 66 l-31 33 -52 -20
c-29 -11 -57 -18 -62 -17 -6 2 15 12 46 21 31 10 56 22 56 26 0 4 -16 25 -36
47 -20 21 -30 30 -23 20 9 -13 10 -17 2 -13 -6 4 -36 -2 -65 -13 -45 -17 -54
-18 -67 -5 -12 12 -10 15 15 22 16 4 31 8 34 8 3 0 18 8 34 16 l28 16 -26 20
c-26 21 -26 21 -77 2 -28 -11 -55 -19 -59 -17 -4 2 -70 62 -146 134 -187 177
-245 227 -412 361 -474 381 -1039 703 -1619 924 -95 36 -123 45 -112 35z"/>
<path d="M5670 11444 c-19 -2 -91 -9 -160 -14 -778 -66 -1594 -331 -2270 -738
-402 -242 -718 -490 -1061 -832 -455 -455 -773 -892 -1052 -1450 -332 -661
-517 -1336 -568 -2065 -23 -330 -3 -823 47 -1160 161 -1094 681 -2156 1443
-2947 112 -117 284 -278 387 -365 l51 -42 95 114 96 114 29 -22 c15 -12 39
-32 53 -44 14 -13 31 -23 38 -23 10 0 86 39 110 56 2 1 -1 11 -7 21 -6 10 -11
15 -11 11 0 -5 -8 0 -18 10 -10 9 -42 37 -71 62 -246 208 -478 438 -627 620
-16 19 -31 37 -34 40 -18 17 -112 134 -144 178 -21 28 -42 52 -47 52 -5 0 -9
7 -9 15 0 9 -7 18 -15 21 -8 4 -12 10 -9 15 3 5 -6 20 -19 33 -14 14 -27 28
-29 33 -2 4 -14 25 -27 46 -17 28 -26 35 -32 26 -4 -8 -3 -20 4 -29 10 -13 10
-13 -5 -2 -14 11 -22 11 -48 -3 -27 -14 -30 -18 -18 -32 11 -14 8 -13 -14 1
-16 10 -28 21 -28 25 0 3 20 17 45 31 43 24 63 46 28 33 -12 -5 -14 -3 -8 7 5
9 4 11 -4 6 -6 -4 -9 -11 -6 -16 3 -5 -8 -16 -24 -25 -34 -17 -45 -19 -37 -6
3 5 -2 8 -12 7 -9 0 -17 5 -17 13 0 13 115 56 115 42 0 -3 4 -1 8 5 4 6 950
390 2102 854 1152 464 2096 843 2096 844 1 1 -2 62 -7 136 -5 74 -15 276 -22
448 -8 176 -18 317 -23 322 -7 7 -133 -60 -380 -201 -688 -394 -3999 -2266
-4069 -2301 -117 -59 -115 -59 -115 9 0 32 7 71 15 87 8 15 15 34 15 40 0 7
11 27 24 45 l24 32 -73 147 c-263 528 -425 1085 -502 1727 -26 216 -26 884 0
1100 79 658 243 1212 528 1776 715 1418 2056 2432 3614 2733 235 45 455 73
666 84 148 8 138 15 105 -78 -9 -25 -163 -1062 -343 -2305 -179 -1243 -331
-2266 -337 -2274 -6 -7 -818 -648 -1804 -1424 -987 -776 -1801 -1421 -1809
-1434 -9 -13 -14 -25 -12 -27 2 -2 859 613 1904 1366 1045 753 1906 1372 1913
1375 7 3 93 -33 190 -80 200 -96 351 -161 400 -172 28 -6 33 -4 30 9 -1 8
-113 108 -248 222 -184 154 -251 217 -269 250 l-24 44 92 918 c50 504 152
1527 226 2272 106 1065 138 1362 152 1388 19 37 82 97 119 114 18 9 27 9 36 0
9 -9 8 -12 -6 -12 -17 0 -17 -13 -12 -207 7 -214 10 -432 51 -3291 21 -1443
26 -1685 39 -1697 20 -21 29 -19 83 14 27 15 152 84 278 151 127 67 254 136
283 152 59 33 71 31 16 -3 -29 -18 -33 -24 -22 -35 7 -7 164 -124 350 -261
185 -136 1037 -765 1894 -1398 857 -632 1566 -1156 1577 -1164 18 -13 18 -12
4 15 -9 16 -35 48 -59 70 -29 28 -3523 2799 -3606 2860 -2 1 -25 152 -52 336
-179 1248 -613 4192 -624 4233 -7 28 -16 58 -20 67 -7 15 -1 17 66 12 431 -28
760 -79 1088 -168 212 -57 385 -108 394 -117 6 -5 18 -9 28 -9 34 0 301 -111
504 -209 336 -164 635 -349 923 -571 79 -61 145 -110 146 -108 2 2 19 23 39
47 l37 44 202 -204 c111 -112 252 -264 312 -337 359 -435 648 -938 822 -1431
24 -68 43 -130 41 -138 -2 -7 -27 42 -57 110 -30 67 -60 133 -69 146 -13 21
-16 22 -24 8 -5 -10 -15 -14 -25 -10 -11 4 -14 3 -9 -5 5 -8 1 -10 -10 -5 -13
5 -15 3 -9 -7 5 -8 4 -11 -2 -7 -6 4 -13 0 -17 -8 -3 -9 -12 -12 -22 -8 -13 5
-15 3 -9 -7 5 -9 4 -11 -3 -6 -7 4 -12 9 -12 11 0 2 29 20 64 40 45 25 63 41
59 51 -3 8 -9 14 -15 14 -5 0 -6 -5 -2 -12 4 -7 3 -8 -5 -4 -9 6 -9 11 1 24
12 14 10 14 -10 3 -20 -11 -21 -15 -11 -29 11 -14 11 -15 -1 -4 -18 15 -34 16
-24 0 4 -7 3 -8 -4 -4 -15 9 -54 -12 -47 -24 3 -6 -1 -7 -9 -4 -9 3 -13 11 -9
17 3 6 1 7 -5 3 -7 -4 -12 -3 -12 1 0 5 27 23 61 42 33 18 58 35 55 38 -2 2
-13 0 -24 -6 -27 -14 -35 -14 -26 1 4 7 3 8 -5 4 -6 -4 -9 -11 -6 -16 8 -13
-51 -41 -72 -34 -10 3 -14 2 -8 -3 14 -12 36 -52 40 -75 3 -11 12 -32 22 -47
9 -14 18 -30 18 -36 1 -5 17 -44 36 -85 20 -41 41 -91 48 -110 7 -19 18 -46
23 -60 18 -43 26 -63 53 -140 15 -41 33 -89 40 -106 19 -46 115 -381 131 -459
1 -5 7 -28 13 -50 5 -22 13 -58 16 -80 3 -22 10 -53 15 -70 8 -30 42 -229 43
-252 0 -19 11 -16 68 17 28 17 53 29 55 27 2 -2 -23 -19 -56 -37 -53 -30 -78
-60 -50 -60 6 0 6 -9 0 -25 -12 -32 -8 -31 57 5 61 35 63 35 63 15 0 -9 -17
-23 -37 -33 -21 -9 -44 -23 -51 -30 -8 -7 -19 -9 -25 -6 -9 5 -9 4 -1 -5 9
-10 22 -6 60 18 27 17 51 26 53 20 4 -14 -5 -22 -61 -53 -29 -16 -48 -22 -48
-15 0 7 -3 10 -6 6 -3 -3 -2 -12 3 -20 7 -13 17 -10 64 18 l56 33 7 -72 c15
-170 25 -361 27 -489 1 -76 6 -140 10 -143 5 -3 9 81 9 185 0 105 3 191 7 191
4 0 33 -16 63 -36 30 -21 66 -44 80 -53 14 -9 49 -34 79 -56 l54 -39 -6 184
c-33 953 -366 1959 -928 2797 -854 1274 -2176 2121 -3669 2352 -276 43 -415
53 -775 56 -192 2 -366 1 -385 -1z"/>
<path d="M6052 5867 c-6 -7 -17 -160 -26 -367 -9 -195 -19 -391 -22 -435 l-6
-81 38 -17 c22 -9 415 -168 874 -353 459 -185 1404 -566 2100 -846 696 -280
1281 -514 1300 -520 60 -18 158 -5 233 31 37 18 65 36 62 41 -3 4 -33 24 -68
43 -34 19 -1009 569 -2167 1222 -1158 653 -2148 1212 -2200 1241 -52 30 -98
54 -101 54 -4 0 -11 -6 -17 -13z"/>
</g>
</svg>
